<?xml version="1.0" encoding="UTF-8" standalone="no"?>
<svg
   xmlns:dc="http://purl.org/dc/elements/1.1/"
   xmlns:cc="http://creativecommons.org/ns#"
   xmlns:rdf="http://www.w3.org/1999/02/22-rdf-syntax-ns#"
   xmlns:svg="http://www.w3.org/2000/svg"
   xmlns="http://www.w3.org/2000/svg"
   viewBox="0 0 1600 1066.6667"
   height="1066.6667"
   width="1600"
   xml:space="preserve"
   id="svg2"
   version="1.1"><metadata
     id="metadata8"><rdf:RDF><cc:Work
         rdf:about=""><dc:format>image/svg+xml</dc:format><dc:type
           rdf:resource="http://purl.org/dc/dcmitype/StillImage" /></cc:Work></rdf:RDF></metadata><defs
     id="defs6"><clipPath
       id="clipPath22"
       clipPathUnits="userSpaceOnUse"><path
         id="path20"
         d="M 0,800 H 1200 V 0 H 0 Z" /></clipPath></defs><g
     transform="matrix(1.3333333,0,0,-1.3333333,0,1066.6667)"
     id="g10"><text
       id="text14"
       style="font-variant:normal;font-weight:normal;font-stretch:normal;font-size:34px;font-family:'Gotham Book';-inkscape-font-specification:Gotham-Book;writing-mode:lr-tb;fill:#000000;fill-opacity:1;fill-rule:nonzero;stroke:none"
       transform="matrix(1,0,0,-1,867.8335,329.3643)"><tspan
         id="tspan12"
         y="0"
         x="0 46.138 77.417999 110.466 145.826">WEBAŘ</tspan></text>
<g
       id="g16"><g
         clip-path="url(#clipPath22)"
         id="g18"><g
           transform="translate(363.1956,480.651)"
           id="g24"><path
             id="path26"
             style="fill:#000000;fill-opacity:1;fill-rule:nonzero;stroke:none"
             d="m 0,0 c -2.243,-2.292 -4.544,-4.532 -6.72,-6.886 -10.419,-11.273 -20.488,-22.848 -30.199,-34.74 -13.302,-16.29 -26.071,-32.985 -38.436,-49.99 -8.482,-11.663 -16.798,-23.446 -25.248,-35.132 -7.63,-10.552 -15.278,-21.093 -23.056,-31.536 -2.325,-3.122 -5.075,-5.935 -7.708,-8.817 -0.868,-0.95 -1.918,-1.775 -3.001,-2.479 -1.801,-1.171 -3.702,-1.427 -5.833,-0.649 -6.467,2.363 -8.572,5.342 -8.11,12.209 0.5,7.455 2.004,14.76 4.086,21.908 4.448,15.266 9.088,30.475 13.676,45.7 3.085,10.237 6.239,20.452 9.317,30.69 2.515,8.367 4.964,16.752 7.437,25.131 0.182,0.614 0.318,1.241 0.556,2.183 -1.232,-0.475 -1.647,-1.407 -2.176,-2.13 -10.489,-14.34 -20.885,-28.747 -31.438,-43.04 -13.425,-18.184 -26.953,-36.292 -40.474,-54.405 -7.733,-10.358 -15.528,-20.671 -23.318,-30.986 -10.256,-13.581 -20.576,-27.112 -31.606,-40.083 -6.689,-7.864 -13.303,-15.819 -21.188,-22.535 -2.881,-2.454 -6.134,-4.519 -9.4,-6.452 -2.23,-1.321 -4.774,-1.536 -7.181,-0.056 -0.954,0.586 -1.644,1.244 -0.709,2.675 0.52,-0.712 0.957,-1.311 1.434,-1.962 2.148,0.63 3.825,1.935 5.43,3.36 5.66,5.024 10.609,10.715 15.27,16.642 6.21,7.895 12.316,15.874 18.33,23.92 6.292,8.419 12.415,16.964 18.623,25.446 6.206,8.478 12.399,16.966 18.645,25.415 11.443,15.479 22.893,30.952 34.392,46.39 10.388,13.946 20.9,27.8 31.253,41.772 8.47,11.431 16.78,22.98 25.175,34.466 1.592,2.179 3.201,4.348 4.884,6.457 1.387,1.739 2.052,1.858 4.108,1.067 0.433,-0.167 0.869,-0.346 1.27,-0.577 4.748,-2.738 4.657,-2.82 3.437,-7.392 -2.447,-9.163 -4.973,-18.307 -7.603,-27.42 -5.543,-19.205 -11.122,-38.401 -16.787,-57.57 -3.689,-12.483 -7.604,-24.899 -11.325,-37.372 -2.393,-8.025 -4.32,-16.166 -5.437,-24.48 -0.118,-0.875 -0.108,-1.767 0.352,-2.958 1.023,0.997 2.172,1.895 3.049,3.008 5.004,6.356 10.111,12.64 14.875,19.173 15.729,21.572 31.263,43.286 47.006,64.848 6.416,8.789 13.097,17.388 19.798,25.965 11.455,14.661 23.203,29.089 35.856,42.742 6.191,6.681 12.667,13.097 19.043,19.605 0.84,0.857 1.944,1.46 2.765,2.332 1.613,1.713 3.292,1.371 5.063,0.394 0.245,-0.134 0.48,-0.286 0.719,-0.43 3.661,-2.197 4.296,-3.159 3.287,-7.276 -1.126,-4.597 -2.44,-9.183 -4.128,-13.6 -6.007,-15.717 -12.211,-31.358 -18.335,-47.03 -5.482,-14.031 -11.019,-28.04 -16.414,-42.105 -3.33,-8.682 -6.537,-17.413 -9.622,-26.185 -4.598,-13.071 -9.116,-26.171 -13.527,-39.306 -5.242,-15.61 -10.1,-31.342 -13.296,-47.519 -1.115,-5.647 -1.916,-11.378 -2.441,-17.109 -0.291,-3.172 0.284,-6.424 0.469,-9.645 -2.436,-0.147 -2.817,0.043 -3.842,2.247 -1.734,3.729 -2.263,7.74 -1.92,11.734 0.654,7.595 1.383,15.205 2.586,22.728 3.284,20.536 9.258,40.403 15.638,60.142 3.774,11.674 7.692,23.306 11.782,34.872 3.75,10.604 7.674,21.151 11.781,31.621 5.937,15.136 12.064,30.198 18.196,45.256 3.541,8.697 7.254,17.324 10.878,25.988 0.199,0.477 0.281,1.003 0.418,1.507 C 0.271,-0.173 0.135,-0.086 0,0" /></g><g
           transform="translate(590.6115,468.4182)"
           id="g28"><path
             id="path30"
             style="fill:#000000;fill-opacity:1;fill-rule:nonzero;stroke:none"
             d="m 0,0 c -1.603,1.723 -1.654,3.601 -0.327,5.274 1.553,1.958 3.229,3.875 5.119,5.498 7.256,6.234 15.358,11.119 24.253,14.665 3.133,1.249 6.381,2 9.755,2.194 2.578,0.148 4.989,-0.384 7.24,-1.66 6.087,-3.45 9.282,-8.631 9.551,-15.654 0.319,-8.342 -1.059,-16.471 -2.875,-24.557 -2.428,-10.802 -5.71,-21.356 -9.358,-31.793 -4.601,-13.164 -9.52,-26.211 -14.989,-39.045 -1.482,-3.479 -2.837,-7.013 -4.25,-10.522 0.16,-0.134 0.319,-0.267 0.478,-0.401 1.062,0.802 2.2,1.522 3.175,2.419 9.373,8.634 18.707,17.312 28.077,25.95 9.224,8.505 18.432,17.028 27.729,25.452 12.676,11.485 25.478,22.831 38.13,34.341 5.64,5.131 11.032,10.537 15.616,16.669 1.388,1.858 2.654,3.82 3.838,5.816 0.827,1.394 2.012,2.872 -0.458,4.87 1.451,0.055 2.133,0.296 2.533,0.06 2.228,-1.316 3.075,-3.389 2.888,-5.913 -0.211,-2.843 -1.271,-5.428 -2.579,-7.906 -3.102,-5.878 -7.128,-11.111 -11.587,-15.998 -9.721,-10.656 -20.007,-20.749 -30.628,-30.506 -6.639,-6.098 -13.105,-12.388 -19.863,-18.348 -8.299,-7.318 -16.694,-14.542 -25.289,-21.506 -7.006,-5.676 -14.349,-10.937 -21.589,-16.32 -1.537,-1.143 -3.276,-2.015 -5.418,-3.313 2.919,-0.836 5.348,-1.588 7.807,-2.228 16.192,-4.215 32.352,-8.563 48.6,-12.552 12.547,-3.081 25.202,-5.721 37.816,-8.521 12.166,-2.701 24.419,-4.945 36.798,-6.398 9.15,-1.074 18.335,-1.707 27.543,-0.657 4.44,0.506 8.877,1.089 12.884,3.301 0.729,0.403 1.415,0.885 2.119,1.335 1.007,0.645 1.285,1.539 0.872,2.649 -0.389,1.046 -0.766,2.096 -1.192,3.127 -1.104,2.676 -1.114,3.373 0.094,6.657 0.428,-0.401 0.877,-0.673 1.121,-1.072 3.419,-5.586 3.273,-11.333 0.44,-17.032 -1.668,-3.353 -4.87,-5.072 -8.184,-6.398 -6.573,-2.63 -13.5,-3.323 -20.513,-3.53 -13.488,-0.398 -26.707,1.751 -39.871,4.251 -9.127,1.733 -18.238,3.611 -27.263,5.805 -12.368,3.008 -24.7,6.194 -36.953,9.641 -13.596,3.825 -27.094,8.001 -40.616,12.085 -3.554,1.073 -7.04,2.37 -10.804,3.648 -0.373,-0.577 -0.844,-1.126 -1.119,-1.76 -2.836,-6.562 -5.605,-13.155 -8.464,-19.707 -4.237,-9.71 -8.708,-19.322 -12.759,-29.109 -5.085,-12.282 -10.014,-24.636 -14.67,-37.086 -2.143,-5.732 -3.557,-11.745 -5.13,-17.675 -0.563,-2.124 -0.621,-4.382 -0.908,-6.573 -3.43,-0.285 -4.141,0.259 -4.729,3.43 -0.674,3.637 -0.311,7.252 0.307,10.829 2.462,14.237 6.396,28.092 10.905,41.803 6.306,19.177 14.226,37.718 21.974,56.329 0.639,1.534 1.245,3.081 1.921,4.756 -1.793,1.192 -3.525,2.236 -5.136,3.443 -1.702,1.276 -2.557,2.913 -1.441,5.228 3.244,0.235 5.995,-1.781 9.288,-2.113 1.138,2.512 2.358,4.989 3.4,7.539 4.393,10.749 8.807,21.49 13.074,32.289 6.179,15.637 12.191,31.334 16.901,47.5 1.876,6.439 3.518,12.918 4.278,19.574 0.312,2.736 0.05,5.548 -0.074,8.319 -0.068,1.494 -0.972,2.221 -2.538,2.395 -3.772,0.42 -7.454,-0.05 -11.024,-1.143 C 22.664,18.696 12.533,13.116 3.469,5.599 1.72,4.148 0.138,2.578 0,0" /></g><g
           transform="translate(788.4446,380.8876)"
           id="g32"><path
             id="path34"
             style="fill:#000000;fill-opacity:1;fill-rule:nonzero;stroke:none"
             d="m 0,0 c 1.544,0.863 2.786,1.356 3.788,2.152 3.824,3.036 7.746,5.983 11.309,9.308 5.907,5.514 11.573,11.286 17.318,16.971 0.69,0.682 1.244,1.501 1.888,2.289 -1.361,1.545 -2.893,1.713 -4.344,1.182 C 28,31.186 25.974,30.407 24.299,29.205 15.872,23.16 8.714,15.841 3.06,7.121 1.76,5.116 0.458,3.041 0,0 m -99.666,-10.666 c 1.195,0.316 2.027,0.456 2.796,0.757 1.173,0.459 2.365,0.925 3.441,1.569 10.14,6.066 18.398,14.131 24.964,23.914 1.177,1.754 2.197,3.731 2.244,6.115 -0.54,0.056 -0.949,0.144 -1.355,0.133 -3.591,-0.1 -6.673,-1.655 -9.571,-3.563 C -84.2,13.617 -89.892,7.58 -94.698,0.687 c -2.315,-3.32 -4.154,-6.873 -4.968,-11.353 M 76.279,14.28 c 1.887,-1.435 3.816,-1.565 5.728,-1.532 5.866,0.101 10.726,2.579 14.866,6.584 3.446,3.333 5.931,7.36 7.639,11.786 2.33,6.037 4.394,12.177 6.538,18.285 0.197,0.562 0.143,1.212 0.206,1.821 C 96.732,41.486 86.606,27.882 76.279,14.28 M 34.797,6.433 c 3.983,0.93 6.823,2.767 9.615,4.617 6.923,4.587 13.015,10.165 18.775,16.118 1.759,1.817 3.595,3.578 5.185,5.536 1.635,2.012 3.253,4.107 4.461,6.386 5.916,11.164 11.83,22.333 17.474,33.635 4.136,8.284 8.297,16.58 11.375,25.345 1.25,3.558 2.338,7.173 3.507,10.782 4.129,-1.006 6.08,-3.974 4.861,-8.33 -1.727,-6.168 -3.611,-12.297 -5.629,-18.376 -2.504,-7.543 -6.121,-14.608 -9.649,-21.711 -4.87,-9.804 -9.617,-19.67 -14.41,-29.512 -0.065,-0.134 -0.045,-0.309 -0.147,-1.104 0.843,0.922 1.356,1.476 1.861,2.038 5.8,6.452 11.504,12.995 17.449,19.311 2.114,2.245 4.774,3.99 7.269,5.851 0.854,0.637 1.931,1.046 2.968,1.346 0.776,0.225 1.696,0.3 2.476,0.115 3.891,-0.92 7.175,-5.47 6.917,-9.457 -0.296,-4.595 -1.75,-8.928 -3.127,-13.263 C 114.16,29.883 111.956,24.125 108.613,18.906 103.494,10.916 96.227,7.019 86.642,7.638 83.689,7.829 81.056,8.823 78.611,10.405 77.556,11.088 76.542,11.834 75.304,12.694 71.007,7.47 67.575,1.696 63.502,-3.759 c -2.896,1.059 -4.951,2.857 -6.417,5.275 -0.371,0.612 -0.337,1.671 -0.111,2.407 0.866,2.816 1.874,5.587 2.854,8.367 0.332,0.939 0.738,1.852 0.794,3.11 C 59.908,14.813 59.174,14.25 58.484,13.637 54.063,9.704 49.471,6.014 44.18,3.278 38.089,0.128 33.673,1.22 29.799,6.868 c -0.949,1.385 -1.262,2.919 -1.131,4.57 0.057,0.712 0.083,1.426 0.148,2.598 C 27.876,13.239 27.25,12.73 26.647,12.195 21.788,7.892 17.012,3.489 12.039,-0.678 9.994,-2.392 7.586,-3.707 5.238,-5.017 c -2.725,-1.519 -5.344,-1.075 -7.753,0.885 -2.121,1.727 -3.903,3.708 -4.965,6.479 -2.795,-1.816 -5.454,-3.582 -8.15,-5.287 -5.921,-3.745 -11.992,-7.234 -18.505,-9.841 -2.485,-0.994 -5.134,-1.661 -7.766,-2.187 -3.963,-0.793 -7.51,0.344 -10.606,2.914 -0.195,0.162 -0.394,0.318 -0.585,0.484 -5.65,4.918 -6.586,9.656 -3.293,16.449 1.926,3.975 4.487,7.512 7.343,10.855 0.578,0.676 1.122,1.381 1.965,2.424 -4.23,0.17 -8.035,-0.078 -11.522,1.617 -0.169,-0.174 -0.356,-0.274 -0.373,-0.397 -0.693,-5.024 -3.212,-9.193 -6.217,-13.103 -5.166,-6.721 -11.121,-12.677 -17.865,-17.807 -3.02,-2.298 -6.218,-4.331 -10.013,-5.242 -2.372,-0.569 -4.51,-0.158 -6.55,1.04 -0.651,0.383 -1.249,0.86 -1.851,1.323 -6.729,5.174 -8.011,10.204 -3.884,18.662 2.767,5.67 6.96,10.321 11.841,14.313 3.671,3.001 7.613,5.523 12.172,7.037 4.912,1.632 9.617,1.205 14.236,-0.976 0.296,-0.14 0.622,-0.217 1.071,-0.369 0.158,0.805 0.298,1.521 0.485,2.477 1.696,-0.466 3.065,-1.396 4.214,-2.567 1.13,-1.151 2.439,-1.663 3.979,-1.982 4.567,-0.947 9.075,-0.354 13.57,0.407 0.842,0.143 1.67,0.752 2.365,1.318 3.132,2.548 6.099,5.313 9.338,7.712 5.491,4.069 9.245,3.716 14.065,-1.096 1.062,-1.06 2.035,-2.285 2.746,-3.598 0.759,-1.401 1.106,-2.992 -0.425,-4.554 -1.631,1.485 -1.652,3.748 -3.002,5.344 -2.162,0.024 -3.789,-1.296 -5.315,-2.504 -3.1,-2.456 -6.125,-5.029 -8.992,-7.751 -4.898,-4.649 -9.43,-9.645 -13.177,-15.294 -1.914,-2.886 -3.619,-5.892 -4.511,-9.28 -0.143,-0.543 -0.178,-1.115 -0.274,-1.743 1.787,-0.57 3.435,-0.41 5.098,-0.095 6.053,1.147 11.584,3.706 16.814,6.773 7.557,4.431 14.911,9.21 22.289,13.938 1.159,0.743 2.207,1.862 2.938,3.037 5.405,8.692 12.578,15.603 21.241,20.929 5.338,3.283 9.423,3.443 14.652,-0.773 0.722,-0.581 1.389,-1.229 2.084,-1.843 0.367,-0.323 0.74,-0.64 1.395,-1.206 1.614,2.614 3.14,5.086 4.746,7.685 2.489,-0.802 4.42,-2.484 5.903,-4.674 0.305,-0.45 0.296,-1.324 0.089,-1.874 -1.035,-2.755 -2.067,-5.521 -3.318,-8.18 C 40.886,20.442 38.584,16.127 36.499,11.71 35.796,10.221 35.467,8.556 34.797,6.433" /></g><g
           transform="translate(504.6454,382.3306)"
           id="g36"><path
             id="path38"
             style="fill:#000000;fill-opacity:1;fill-rule:nonzero;stroke:none"
             d="m 0,0 c -7.345,-2.18 -17.627,-16.124 -18.679,-25.072 0.56,0.307 1.085,0.5 1.493,0.835 2.585,2.122 5.261,4.152 7.682,6.45 3.035,2.883 5.791,6.052 7.671,9.851 C -0.642,-5.529 0.288,-3.033 0,0 m -151.609,-44.081 c 4.368,1.848 24.711,21.537 28.26,27.059 -0.538,1.572 -1.831,1.211 -2.752,0.765 -2.405,-1.165 -4.895,-2.297 -7.006,-3.897 -6.58,-4.99 -11.752,-11.281 -15.938,-18.372 -0.96,-1.626 -1.6,-3.441 -2.564,-5.555 M 47.168,6.557 c 5.486,-1.305 9.638,-6.824 8.47,-13.136 -0.785,-4.24 -2.551,-7.944 -5.105,-11.325 -5.607,-7.419 -12.932,-12.781 -20.941,-17.286 -7.259,-4.083 -14.972,-7.013 -23.136,-8.691 -6.258,-1.287 -12.527,-1.6 -18.796,0.043 -3.413,0.895 -6.297,2.714 -9.005,4.883 -0.715,0.573 -1.431,1.146 -2.013,1.612 -2.976,-1.171 -5.724,-2.279 -8.495,-3.328 -1.04,-0.395 -2.121,-0.699 -3.203,-0.965 -6.497,-1.595 -13.908,1.664 -17.14,7.541 -1.228,2.233 -1.274,4.625 -0.808,7.062 0.189,0.989 0.402,1.974 0.748,3.664 -1.141,-1.019 -1.841,-1.554 -2.437,-2.188 -6.366,-6.783 -12.694,-13.602 -19.085,-20.361 -1.913,-2.024 -3.898,-4 -6.015,-5.806 -1.938,-1.653 -2.862,-1.576 -5.037,-0.247 -0.397,0.242 -0.786,0.499 -1.167,0.766 -3.041,2.139 -4.585,4.877 -3.215,8.622 1.276,3.488 2.567,6.979 4.036,10.389 2.864,6.651 6.102,13.158 7.576,20.32 0.717,3.486 0.962,7.015 0.077,10.505 -0.304,1.2 -0.968,2.309 -1.671,3.928 -0.456,-0.959 -0.685,-1.35 -0.834,-1.769 -5.297,-14.969 -13.889,-27.926 -24.436,-39.638 -2.284,-2.537 -4.974,-4.775 -7.732,-6.802 -3.848,-2.828 -6.226,-2.667 -10.198,0.064 -0.536,0.369 -1.043,0.78 -1.559,1.177 -2.722,2.092 -4.089,4.753 -3.483,8.256 0.062,0.353 0.011,0.726 0.014,1.69 -1.099,-1.033 -1.873,-1.753 -2.638,-2.481 -3.637,-3.463 -7.207,-7 -10.939,-10.355 -1.504,-1.352 -3.315,-2.389 -5.074,-3.421 -1.896,-1.112 -3.927,-1.091 -5.88,-0.086 -1.152,0.593 -2.298,1.237 -3.33,2.014 -5.44,4.094 -6.524,7.684 -3.845,14.674 2.246,5.859 6.432,10.389 11.073,14.493 3.511,3.104 7.366,5.668 11.812,7.254 4.913,1.754 9.329,0.999 13.166,-2.637 0.267,-0.254 0.554,-0.487 0.908,-0.797 2.491,2.092 4.044,4.806 5.37,7.762 3.154,-0.622 5.404,-2.363 7.252,-4.586 0.461,-0.553 0.511,-1.812 0.236,-2.556 -2.227,-6.014 -4.583,-11.98 -6.885,-17.966 -0.924,-2.401 -1.809,-4.818 -2.711,-7.227 0.168,-0.129 0.335,-0.258 0.503,-0.387 1.094,0.776 2.246,1.481 3.271,2.338 4.882,4.084 8.896,8.98 12.782,13.972 4.871,6.256 9.111,12.922 12.441,20.133 2.192,4.745 4.101,9.586 4.235,14.924 0.009,0.349 0.129,0.694 0.255,1.331 2.831,-0.768 4.904,-2.386 6.562,-4.543 1.519,-1.977 2.715,-4.225 4.366,-6.075 4.839,-5.423 5.693,-11.659 4.352,-18.514 -1.295,-6.624 -3.784,-12.816 -6.527,-18.93 -0.487,-1.087 -0.933,-2.193 -1.5,-3.53 2.503,1.358 27.305,26.423 35.507,35.76 2.267,-0.405 3.841,-1.971 5.249,-3.683 0.949,-1.155 0.427,-2.526 0.005,-3.734 -1.259,-3.597 -2.62,-7.159 -3.925,-10.74 -1.177,-3.229 -2.406,-6.441 -3.462,-9.709 -0.442,-1.368 -0.497,-2.862 -0.726,-4.281 3.962,-0.731 10.821,1.297 17.217,4.974 -0.072,0.457 -0.124,0.983 -0.241,1.495 -0.722,3.161 -0.514,6.275 0.406,9.365 2.696,9.059 7.424,16.826 14.882,22.721 1.699,1.343 3.835,2.361 5.932,2.924 4.419,1.188 11.415,-2.941 12.85,-7.328 0.66,-2.016 0.353,-4.048 -0.21,-6.046 -0.948,-3.368 -2.688,-6.336 -4.769,-9.095 -4.867,-6.453 -10.852,-11.716 -17.527,-16.224 -0.919,-0.621 -1.85,-1.226 -3.146,-2.084 0.614,-0.576 1.013,-1.267 1.546,-1.393 1.711,-0.405 3.463,-0.736 5.215,-0.855 7.191,-0.49 14.078,1.155 20.776,3.479 9.535,3.308 18.431,7.955 26.58,13.926 5.409,3.963 10.695,8.135 14.367,13.88 1.179,1.846 2.059,3.965 2.657,6.078 0.613,2.167 0.274,4.265 -2.18,5.404 -0.634,0.294 -1.116,0.913 -1.668,1.382" /></g><g
           transform="translate(1034.2604,413.2552)"
           id="g40"><path
             id="path42"
             style="fill:#000000;fill-opacity:1;fill-rule:nonzero;stroke:none"
             d="m 0,0 c 6.011,1.322 22.147,15.229 27.669,23.63 -1.434,3.524 -2.716,4.257 -6.345,3.475 C 18.678,26.536 16.607,24.962 14.735,23.089 9.134,17.484 5.049,10.83 1.466,3.838 0.873,2.68 0.525,1.395 0,0 m 3.627,28.303 c -2.071,0.93 -3.773,0.696 -5.476,0.112 -4.403,-1.51 -7.989,-4.346 -11.479,-7.268 -7.205,-6.032 -13.4,-13.045 -19.388,-20.256 -4.844,-5.835 -9.741,-11.627 -14.68,-17.382 -1.033,-1.204 -2.319,-2.202 -3.549,-3.222 -1.282,-1.064 -2.74,-1.335 -4.211,-0.417 -1.71,1.068 -3.414,2.16 -5.024,3.371 -1.717,1.29 -2.319,3.132 -1.756,5.183 0.999,3.641 2.07,7.265 3.228,10.859 1.446,4.486 3.126,8.901 4.469,13.416 0.56,1.885 0.512,3.951 0.786,6.327 -2.483,-0.065 -4.565,-0.027 -6.63,-0.193 -4.28,-0.344 -8.547,-0.854 -12.829,-1.174 -1.497,-0.111 -3.021,0.137 -4.515,0.22 -0.135,-0.117 -0.36,-0.216 -0.371,-0.335 C -78.401,11.02 -81.49,5.479 -84.96,0.18 c -2.993,-4.573 -6.245,-8.997 -9.659,-13.266 -1.769,-2.211 -4.027,-4.08 -6.259,-5.86 -3.885,-3.1 -8.02,-3.571 -12.388,-0.774 -2.44,1.562 -4.775,3.176 -6.268,5.733 -1.465,2.507 -1.232,5.191 -0.708,7.876 1.083,5.556 3.732,10.469 6.595,15.235 1.899,3.161 4.085,6.181 6.416,9.04 2.632,3.229 6.061,5.268 10.332,5.758 3.185,0.364 5.766,-0.838 8.112,-2.779 0.261,-0.216 0.296,-0.705 0.462,-1.136 -3.548,0.256 -5.695,-1.894 -7.737,-4.051 -2.92,-3.086 -4.918,-6.817 -6.929,-10.524 -3.137,-5.781 -6.068,-11.65 -7.769,-18.047 -0.172,-0.649 -0.31,-1.308 -0.42,-1.97 -0.037,-0.219 0.063,-0.461 0.129,-0.863 3.064,0.961 5.391,2.917 7.579,4.986 5.176,4.895 9.332,10.632 13.139,16.612 1.624,2.55 3.014,5.263 4.337,7.987 0.652,1.344 0.986,2.861 1.327,4.332 0.432,1.872 0.451,3.676 -1.272,5.075 -0.404,0.328 -0.541,0.984 -0.941,1.762 0.72,-0.002 1.224,0.135 1.594,-0.03 1.151,-0.511 2.44,-0.933 3.328,-1.761 1.706,-1.592 3.578,-1.987 5.791,-1.699 3.425,0.447 6.861,0.821 10.299,1.153 2.012,0.194 4.046,0.425 6.055,0.326 5.018,-0.246 9.096,-2.547 12.038,-6.526 2.017,-2.726 1.976,-6.085 1.41,-9.274 -0.571,-3.224 -1.527,-6.381 -2.342,-9.561 -0.285,-1.109 -0.653,-2.196 -0.572,-3.548 0.67,0.711 1.35,1.413 2.01,2.133 5.921,6.466 11.725,13.042 17.793,19.366 4.499,4.689 9.449,8.922 15.115,12.202 1.599,0.926 3.27,1.777 4.998,2.422 4.794,1.792 9.425,1.511 13.711,-1.622 0.945,0.752 1.783,1.444 2.647,2.102 4.89,3.729 9.447,4.03 15.059,0.853 2.156,-1.22 3.917,-3.151 5.811,-4.811 0.419,-0.366 0.642,-0.954 1.149,-1.74 1.002,1.581 1.705,2.69 2.544,4.014 2.455,-1.163 4.469,-2.749 5.782,-5.07 0.365,-0.646 0.252,-1.622 0.199,-2.436 -0.204,-3.109 -0.618,-6.213 -0.659,-9.323 -0.022,-1.643 0.529,-3.303 0.885,-4.941 0.284,-1.307 1.218,-1.9 2.487,-2.188 2.758,-0.628 5.532,-0.662 8.292,-0.2 8.908,1.491 16.661,5.289 23.011,11.786 2.205,2.257 4.005,4.811 4.958,7.845 0.816,2.595 1.478,5.247 -1.142,7.417 2.663,-0.98 4.28,-2.908 5.142,-5.452 C 82.493,20.895 80.934,15.719 77.052,11.23 72.289,5.721 66.18,2.246 59.219,0.238 55.049,-0.965 50.825,-1.619 46.498,-0.674 39.485,0.857 34.715,5.181 31.514,11.428 31.134,12.17 30.872,12.972 30.436,14.038 29.8,13.417 29.266,12.95 28.794,12.428 23.64,6.73 18.296,1.218 12.082,-3.335 9.927,-4.915 7.51,-6.183 5.093,-7.344 c -2.277,-1.093 -4.71,-0.949 -6.691,0.698 -2.123,1.764 -4.299,3.589 -5.948,5.768 -2.354,3.114 -1.714,6.684 -0.552,10.16 2.232,6.675 6.163,12.312 10.663,17.61 0.314,0.37 0.586,0.775 1.062,1.411" /></g><g
           transform="translate(1087.9961,468.8012)"
           id="g44"><path
             id="path46"
             style="fill:#000000;fill-opacity:1;fill-rule:nonzero;stroke:none"
             d="m 0,0 c -2.231,-0.783 -4.388,-1.427 -6.455,-2.287 -6.055,-2.522 -12.076,-5.127 -18.107,-7.706 -1.315,-0.562 -2.61,-1.168 -3.927,-1.725 -2.121,-0.898 -4.105,-0.872 -5.745,0.995 -0.942,1.072 -1.951,2.107 -2.743,3.284 -1.219,1.814 -0.995,2.425 1.079,3.053 3.458,1.047 6.917,2.12 10.428,2.962 6.291,1.507 12.62,2.861 18.94,4.249 0.732,0.161 1.512,0.086 2.259,0.195 C -2.007,3.347 -0.893,2.069 0,0" /></g><g
           transform="translate(807.5706,436.7845)"
           id="g48"><path
             id="path50"
             style="fill:#000000;fill-opacity:1;fill-rule:nonzero;stroke:none"
             d="M 0,0 C 1.446,0.624 2.326,1.105 3.265,1.394 10.647,3.669 18.03,5.941 25.434,8.141 28.353,9.008 28.767,8.735 30.31,5.69 29.86,5.391 29.421,5.027 28.923,4.78 22.375,1.537 15.817,-1.688 9.264,-4.92 5.966,-6.547 4.622,-6.294 2.295,-3.438 1.523,-2.491 0.926,-1.402 0,0" /></g><g
           transform="translate(471.2068,398.5235)"
           id="g52"><path
             id="path54"
             style="fill:#000000;fill-opacity:1;fill-rule:nonzero;stroke:none"
             d="m 0,0 c -4.89,2.693 -5.341,4.348 -2.174,8.475 1.403,1.828 2.994,3.545 4.684,5.113 1.567,1.454 2.52,1.529 4.238,0.307 1.723,-1.226 3.345,-2.651 4.788,-4.198 C 13.01,8.117 12.908,7.266 11.1,6.099 8.769,4.595 6.284,3.328 3.848,1.989 2.555,1.278 1.227,0.631 0,0" /></g></g></g></g></svg>